# xmcd
#
# Track frame offsets: 
#        150
#        20087
#        35789
#        58141
#        78768
#        92795
#        112497
#        130274
#        151126
#        174428
#        188179
#        207089
#        226184
#        250021
#        268802
#        288513
#        311182
#        330919
#
# Disc length: 4723 seconds
#
# Revision: 0
# Processed by: cddbd v1.4PL0 Copyright (c) Steve Scherf et al.
# Submitted via: ExactAudioCopy v0.95a3
#
DISCID=01127112
DTITLE=杨坤 - 无所谓
DYEAR=2002
DGENRE=Pop
TTITLE0=无所谓
TTITLE1=美丽一天
TTITLE2=I Miss You
TTITLE3=里约热内路
TTITLE4=I Belive
TTITLE5=飞船
TTITLE6=那么美
TTITLE7=两个人的世界
TTITLE8=为了爱情
TTITLE9=陌生
TTITLE10=爱就爱了
TTITLE11=展翅高飞
TTITLE12=花样年华
TTITLE13=深绿
TTITLE14=青菜鸡蛋面
TTITLE15=喝彩
TTITLE16=Kiss Me
TTITLE17=灰
EXTD=
EXTT0=
EXTT1=
EXTT2=
EXTT3=
EXTT4=
EXTT5=
EXTT6=
EXTT7=
EXTT8=
EXTT9=
EXTT10=
EXTT11=
EXTT12=
EXTT13=
EXTT14=
EXTT15=
EXTT16=
EXTT17=
PLAYORDER=
